<?xml version="1.0" encoding="UTF-8"?>
<svg width="52px" height="121px" viewBox="0 0 52 121" version="1.1" xmlns="http://www.w3.org/2000/svg" xmlns:xlink="http://www.w3.org/1999/xlink">
    <!-- Generator: Sketch 51.1 (57501) - http://www.bohemiancoding.com/sketch -->
    <title>ioms_logo_hero</title>
    <desc>Created with Sketch.</desc>
    <defs></defs>
    <g id="Page-1" stroke="none" stroke-width="1" fill="none" fill-rule="evenodd">
        <g id="Home" transform="translate(-694.000000, -249.000000)">
            <g id="ioms_logo_hero" transform="translate(694.000000, 249.000000)">
                <g id="Rectangle-Copy-120">
                    <g id="Rectangle-Copy-119" fill-rule="nonzero">
                        <rect fill="#FFFFFF" x="37.8181818" y="0" width="4.13636364" height="4.19306931" rx="2.06818182"></rect>
                        <rect id="Rectangle-Copy-120" fill="#FFFFFF" x="21.2727273" y="43.1287129" width="8.86363636" height="5.99009901" rx="2.9950495"></rect>
                        <rect id="Rectangle-Copy-121" fill="#FFFFFF" x="37.8181818" y="91.049505" width="14.1818182" height="6.58910891" rx="3.29455446"></rect>
                        <rect id="Rectangle-Copy-122" fill="#FFFFFF" x="26" y="19.1683168" width="7.09090909" height="5.99009901" rx="2.9950495"></rect>
                        <rect id="Rectangle-Copy-123" fill="#FFFFFF" x="28.3636364" y="67.0891089" width="14.1818182" height="6.58910891" rx="3.29455446"></rect>
                        <rect id="Rectangle-Copy-124" fill="#FFFFFF" x="37.8181818" y="115.009901" width="8.27272727" height="5.99009901" rx="2.9950495"></rect>
                        <rect id="Rectangle-Copy-125" fill="#FFFFFF" x="30.7272727" y="9.58415842" width="4.72727273" height="4.79207921" rx="2.36363636"></rect>
                        <rect id="Rectangle-Copy-126" fill="#FFFFFF" x="23.6363636" y="55.1089109" width="11.8181818" height="6.58910891" rx="3.29455446"></rect>
                        <rect id="Rectangle-Copy-127" fill="#FFFFFF" x="40.1818182" y="103.029703" width="9.45454545" height="5.99009901" rx="2.9950495"></rect>
                        <rect id="Rectangle-Copy-128" fill="#FFFFFF" x="21.2727273" y="31.1485149" width="8.27272727" height="5.99009901" rx="2.9950495"></rect>
                        <rect id="Rectangle-Copy-129" fill="#FFFFFF" x="33.0909091" y="79.0693069" width="16.5454545" height="7.18811881" rx="3.59405941"></rect>
                        <g id="Group-2-Copy-7" transform="translate(9.454545, 0.000000)" stroke="#FFFFFF" stroke-width="1.5">
                            <rect id="Rectangle-Copy-77" x="17.8863636" y="1.3490099" width="2.63636364" height="2.69306931" rx="1.31818182"></rect>
                            <rect id="Rectangle-Copy-78" x="0.75" y="44.4777228" width="3.22727273" height="3.29207921" rx="1.61363636"></rect>
                            <rect id="Rectangle-Copy-79" x="17.2954545" y="92.6381188" width="3.22727273" height="3.29207921" rx="1.61363636"></rect>
                            <rect id="Rectangle-Copy-80" x="5.47727273" y="20.5173267" width="3.22727273" height="3.29207921" rx="1.61363636"></rect>
                            <rect id="Rectangle-Copy-81" x="7.84090909" y="68.6777228" width="3.22727273" height="3.29207921" rx="1.61363636"></rect>
                            <rect id="Rectangle-Copy-82" x="17.2954545" y="116.358911" width="3.22727273" height="3.29207921" rx="1.61363636"></rect>
                            <rect id="Rectangle-Copy-83" x="10.2045455" y="10.3341584" width="3.22727273" height="3.29207921" rx="1.61363636"></rect>
                            <rect id="Rectangle-Copy-84" x="3.11363636" y="56.6975248" width="3.22727273" height="3.29207921" rx="1.61363636"></rect>
                            <rect id="Rectangle-Copy-85" x="19.6590909" y="104.378713" width="3.22727273" height="3.29207921" rx="1.61363636"></rect>
                            <rect id="Rectangle-Copy-86" x="0.75" y="32.4975248" width="3.22727273" height="3.29207921" rx="1.61363636"></rect>
                            <rect id="Rectangle-Copy-87" x="12.5681818" y="81.0173267" width="3.22727273" height="3.29207921" rx="1.61363636"></rect>
                        </g>
                        <g id="Group-2-Copy-8" stroke="#FFFFFF" stroke-width="1.5">
                            <rect id="Rectangle-Copy-77" x="17.2954545" y="1.63653465" width="1.45454545" height="1.4950495" rx="0.727272727"></rect>
                            <rect id="Rectangle-Copy-78" x="0.75" y="45.0767327" width="2.04545455" height="2.09405941" rx="1.02272727"></rect>
                            <rect id="Rectangle-Copy-79" x="16.7045455" y="92.8777228" width="2.63636364" height="2.69306931" rx="1.31818182"></rect>
                            <rect id="Rectangle-Copy-80" x="5.47727273" y="21.1163366" width="2.04545455" height="2.09405941" rx="1.02272727"></rect>
                            <rect id="Rectangle-Copy-81" x="7.25" y="68.9772277" width="2.63636364" height="2.69306931" rx="1.31818182"></rect>
                            <rect id="Rectangle-Copy-82" x="17.2954545" y="117.317327" width="1.45454545" height="1.4950495" rx="0.727272727"></rect>
                            <rect id="Rectangle-Copy-83" x="10.2045455" y="10.9331683" width="2.04545455" height="2.09405941" rx="1.02272727"></rect>
                            <rect id="Rectangle-Copy-84" x="2.52272727" y="56.9371287" width="2.63636364" height="2.69306931" rx="1.31818182"></rect>
                            <rect id="Rectangle-Copy-85" x="19.6590909" y="104.977723" width="2.04545455" height="2.09405941" rx="1.02272727"></rect>
                            <rect id="Rectangle-Copy-86" x="0.75" y="33.0965347" width="2.04545455" height="2.09405941" rx="1.02272727"></rect>
                            <rect id="Rectangle-Copy-87" x="11.9772727" y="81.2569307" width="2.63636364" height="2.69306931" rx="1.31818182"></rect>
                        </g>
                    </g>
                </g>
            </g>
        </g>
    </g>
</svg>