<?xml version="1.0" encoding="UTF-8"?>
<svg width="26px" height="61px" viewBox="0 0 26 61" version="1.1" xmlns="http://www.w3.org/2000/svg" xmlns:xlink="http://www.w3.org/1999/xlink">
    <!-- Generator: Sketch 51.1 (57501) - http://www.bohemiancoding.com/sketch -->
    <title>Rectangle Copy 130</title>
    <desc>Created with Sketch.</desc>
    <defs></defs>
    <g id="Page-1" stroke="none" stroke-width="1" fill="none" fill-rule="evenodd">
        <g id="Home" transform="translate(-827.000000, -2792.000000)">
            <g id="Rectangle-Copy-119" transform="translate(827.000000, 2792.000000)">
                <g>
                    <rect fill="#FFFFFF" fill-rule="nonzero" x="18.9090909" y="0" width="2.06818182" height="2.09313725" rx="1.03409091"></rect>
                    <rect id="Rectangle-Copy-120" fill="#FFFFFF" fill-rule="nonzero" x="10.6363636" y="21.5294118" width="4.43181818" height="2.99019608" rx="1.49509804"></rect>
                    <rect id="Rectangle-Copy-121" fill="#FFFFFF" fill-rule="nonzero" x="18.9090909" y="45.4509804" width="7.09090909" height="3.28921569" rx="1.64460784"></rect>
                    <rect id="Rectangle-Copy-122" fill="#FFFFFF" fill-rule="nonzero" x="13" y="9.56862745" width="3.54545455" height="2.99019608" rx="1.49509804"></rect>
                    <rect id="Rectangle-Copy-123" fill="#FFFFFF" fill-rule="nonzero" x="14.1818182" y="33.4901961" width="7.09090909" height="3.28921569" rx="1.64460784"></rect>
                    <rect id="Rectangle-Copy-124" fill="#FFFFFF" fill-rule="nonzero" x="18.9090909" y="57.4117647" width="4.13636364" height="2.99019608" rx="1.49509804"></rect>
                    <rect id="Rectangle-Copy-125" fill="#FFFFFF" fill-rule="nonzero" x="15.3636364" y="4.78431373" width="2.36363636" height="2.39215686" rx="1.18181818"></rect>
                    <rect id="Rectangle-Copy-126" fill="#FFFFFF" fill-rule="nonzero" x="11.8181818" y="27.5098039" width="5.90909091" height="3.28921569" rx="1.64460784"></rect>
                    <rect id="Rectangle-Copy-127" fill="#FFFFFF" fill-rule="nonzero" x="20.0909091" y="51.4313725" width="4.72727273" height="2.99019608" rx="1.49509804"></rect>
                    <rect id="Rectangle-Copy-128" fill="#FFFFFF" fill-rule="nonzero" x="10.6363636" y="15.5490196" width="4.13636364" height="2.99019608" rx="1.49509804"></rect>
                    <rect id="Rectangle-Copy-129" fill="#FFFFFF" fill-rule="nonzero" x="16.5454545" y="39.4705882" width="8.27272727" height="3.58823529" rx="1.79411765"></rect>
                    <g id="Group-2-Copy-7" transform="translate(4.727273, 0.000000)" fill="#00C6FF" fill-rule="nonzero">
                        <rect id="Rectangle-Copy-77" x="8.56818182" y="0.299019608" width="2.06818182" height="2.09313725" rx="1.03409091"></rect>
                        <rect id="Rectangle-Copy-78" x="0" y="21.8284314" width="2.36363636" height="2.39215686" rx="1.18181818"></rect>
                        <rect id="Rectangle-Copy-79" x="8.27272727" y="45.8696078" width="2.36363636" height="2.39215686" rx="1.18181818"></rect>
                        <rect id="Rectangle-Copy-80" x="2.36363636" y="9.86764706" width="2.36363636" height="2.39215686" rx="1.18181818"></rect>
                        <rect id="Rectangle-Copy-81" x="3.54545455" y="33.9088235" width="2.36363636" height="2.39215686" rx="1.18181818"></rect>
                        <rect id="Rectangle-Copy-82" x="8.27272727" y="57.7107843" width="2.36363636" height="2.39215686" rx="1.18181818"></rect>
                        <rect id="Rectangle-Copy-83" x="4.72727273" y="4.78431373" width="2.36363636" height="2.39215686" rx="1.18181818"></rect>
                        <rect id="Rectangle-Copy-84" x="1.18181818" y="27.9284314" width="2.36363636" height="2.39215686" rx="1.18181818"></rect>
                        <rect id="Rectangle-Copy-85" x="9.45454545" y="51.7303922" width="2.36363636" height="2.39215686" rx="1.18181818"></rect>
                        <rect id="Rectangle-Copy-86" x="0" y="15.8480392" width="2.36363636" height="2.39215686" rx="1.18181818"></rect>
                        <rect id="Rectangle-Copy-87" x="5.90909091" y="40.0686275" width="2.36363636" height="2.39215686" rx="1.18181818"></rect>
                    </g>
                    <g id="Group-2-Copy-8" fill="#00C6FF" fill-rule="nonzero">
                        <rect id="Rectangle-Copy-77" x="8.27272727" y="0.44254902" width="1.47727273" height="1.49509804" rx="0.738636364"></rect>
                        <rect id="Rectangle-Copy-78" x="0" y="22.127451" width="1.77272727" height="1.79411765" rx="0.886363636"></rect>
                        <rect id="Rectangle-Copy-79" x="7.97727273" y="45.9892157" width="2.06818182" height="2.09313725" rx="1.03409091"></rect>
                        <rect id="Rectangle-Copy-80" x="2.36363636" y="10.1666667" width="1.77272727" height="1.79411765" rx="0.886363636"></rect>
                        <rect id="Rectangle-Copy-81" x="3.25" y="34.0583333" width="2.06818182" height="2.09313725" rx="1.03409091"></rect>
                        <rect id="Rectangle-Copy-82" x="8.27272727" y="58.1892157" width="1.47727273" height="1.49509804" rx="0.738636364"></rect>
                        <rect id="Rectangle-Copy-83" x="4.72727273" y="5.08333333" width="1.77272727" height="1.79411765" rx="0.886363636"></rect>
                        <rect id="Rectangle-Copy-84" x="0.886363636" y="28.0480392" width="2.06818182" height="2.09313725" rx="1.03409091"></rect>
                        <rect id="Rectangle-Copy-85" x="9.45454545" y="52.0294118" width="1.77272727" height="1.79411765" rx="0.886363636"></rect>
                        <rect id="Rectangle-Copy-86" x="0" y="16.1470588" width="1.77272727" height="1.79411765" rx="0.886363636"></rect>
                        <rect id="Rectangle-Copy-87" x="5.61363636" y="40.1882353" width="2.06818182" height="2.09313725" rx="1.03409091"></rect>
                    </g>
                </g>
            </g>
        </g>
    </g>
</svg>